<?xml version="1.0" encoding="utf-8"?>
<!-- Generator: Adobe Illustrator 24.1.0, SVG Export Plug-In . SVG Version: 6.00 Build 0)  -->
<svg version="1.1" id="Layer_1" xmlns="http://www.w3.org/2000/svg" xmlns:xlink="http://www.w3.org/1999/xlink" x="0px" y="0px"
	 viewBox="0 0 493 292" style="enable-background:new 0 0 493 292;" xml:space="preserve">
<style type="text/css">
	.st0{fill:#11102C;}
</style>
<path class="st0" d="M217.9,204.9c0,4.5-3.6,8.2-8.2,8.2c-4.5,0-8.2-3.6-8.2-8.2c0-4.5,3.6-8.2,8.2-8.2c0,0,0,0,0,0
	C214.3,196.7,217.9,200.3,217.9,204.9C217.9,204.8,217.9,204.8,217.9,204.9z"/>
<path class="st0" d="M213.8,143.6h28.6v40.8h-28.6c-4.5,0-8.2-3.7-8.2-8.2c0,0,0,0,0,0v-24.5C205.7,147.3,209.3,143.6,213.8,143.6
	C213.8,143.6,213.8,143.6,213.8,143.6z"/>
<path class="st0" d="M222,131.4c0-2.3,1.8-4.1,4.1-4.1h40.8c2.3,0,4.1,1.8,4.1,4.1s-1.8,4.1-4.1,4.1h-40.8
	C223.8,135.5,222,133.6,222,131.4z"/>
<path class="st0" d="M279.2,184.4h-28.6v-40.8h28.6c4.5,0,8.2,3.7,8.2,8.2c0,0,0,0,0,0v24.5C287.3,180.8,283.7,184.4,279.2,184.4
	L279.2,184.4z"/>
<path class="st0" d="M291.4,204.9c0,4.5-3.6,8.2-8.2,8.2c-4.5,0-8.2-3.6-8.2-8.2c0-4.5,3.6-8.2,8.2-8.2c0,0,0,0,0,0
	C287.7,196.7,291.4,200.3,291.4,204.9C291.4,204.8,291.4,204.8,291.4,204.9z"/>
<path class="st0" d="M246.5,65.5C185.5,65.5,136,115,136,176s49.5,110.5,110.5,110.5S357,237.1,357,176c0,0,0,0,0,0
	C357,115,307.5,65.5,246.5,65.5z M311.8,168.1c0,4.5-3.6,8.2-8.1,8.2c0,0,0,0,0,0v40.8c0,4.5-3.7,8.2-8.2,8.2c0,0,0,0,0,0v8.2
	c0,4.5-3.6,8.2-8.1,8.2c0,0,0,0,0,0h-8.2c-4.5,0-8.2-3.7-8.2-8.2c0,0,0,0,0,0v-8.2h-49v8.2c0,4.5-3.6,8.2-8.1,8.2c0,0,0,0,0,0h-8.2
	c-4.5,0-8.2-3.7-8.2-8.2c0,0,0,0,0,0v-8.2c-4.5,0-8.2-3.6-8.2-8.1c0,0,0,0,0,0v-40.8c-4.5,0-8.2-3.7-8.2-8.2c0,0,0,0,0,0v-16.3
	c0-4.5,3.6-8.2,8.1-8.2c0,0,0,0,0,0v-12.2c0-11.4,22.9-20.4,57.2-20.4s57.1,9,57.1,20.4v12.2c4.5,0,8.2,3.7,8.2,8.2c0,0,0,0,0,0
	V168.1z"/>
</svg>
