<svg xmlns="http://www.w3.org/2000/svg" viewBox="0 0 455.08 338.52"><defs><style>.cls-1{fill:#151942;}.cls-2{fill:#1b1c45;}.cls-3{fill:#f9a71d;}.cls-4{fill:#ea2327;}.cls-5{fill:#fefefe;}</style></defs><g id="Layer_2" data-name="Layer 2"><g id="Layer_1-2" data-name="Layer 1"><path class="cls-1" d="M302.88,15.58a30.23,30.23,0,0,1-3.61,0c-1.9-.26-2.48.18-2.23,2.09.15,1.14.56,2.23.81,3.36.16.73.26,1.47.48,2.81-1.3-.72-2.18-1.14-3-1.66a19.93,19.93,0,0,0-9.43-3.53c-1.79-.11-3.49.16-4.65,1.72-1.94,2.61-.73,5.73,2.55,6.46,2.81.63,5.66,1.08,8.47,1.68a12.59,12.59,0,0,1,10.29,10.22c2.24,10.2,2.56,20.47-.27,30.62-.64,2.28-2.11,4.33-3.31,6.42a1.6,1.6,0,0,1-1.43.63,1.83,1.83,0,0,1-.73-1.41c0-1.73,0-3.46.12-5.19.17-3-.45-4.21-3.27-5.33-1.7-.68-2-1.72-1.54-3.33.73-2.71,1.46-5.43,2-8.18.76-3.7-.68-7-3.58-8.62-2.09-1.16-3.81-.63-4.64,1.6a10,10,0,0,0,.56,7.83c.74,1.63,1.48,3.26,2.12,4.93.55,1.39-.12,2-1.48,1.74-1.13-.19-2.22-.62-3.34-.82a19.63,19.63,0,0,0-2.55-.11,8.14,8.14,0,0,0,.17,2.68c1.7,4,3.67,7.9,5.29,11.94,7.11,17.68,14.78,35.13,20.46,53.36a265.46,265.46,0,0,1,8.22,35.06,137.73,137.73,0,0,1,1.37,30.7c-.45,7.86-1.24,15.71-2.09,23.54-.28,2.57-.93,5.18-3,7.1s-6.63,2-8.51.16a3.59,3.59,0,0,1-1.09-2.51,134.83,134.83,0,0,1,1.68-14.06,141.76,141.76,0,0,0,2.21-37c-1.6-25.22-7.41-49.54-15.63-73.33-2.85-8.27-6.25-16.36-9.41-24.53a3.7,3.7,0,0,0-.47-1.05c-.54-.68-1.15-1.3-1.73-1.95-.56.55-1.1,1.13-1.68,1.66s-1,.87-1.55,1.3a7.2,7.2,0,0,1-1.18-1.79c-.6-2.09-1-4.22-1.55-6.33a4.25,4.25,0,0,0-3.5-3.39c-.25.92-.81,1.89-.68,2.75.53,3.4,1.21,6.78,2,10.13.3,1.27.5,2.25-.63,3.28a2.94,2.94,0,0,0-.6,2.27c.31,2.12-.76,2.86-2.6,3.16-2.58.42-2.6.51-1.44,2.85.26.52.49,1,.79,1.54,1.16,1.89,1.46,3.49-.23,5.49-1,1.24-1.11,3.31-1.57,5-.25.94-.41,1.92-.7,3.25-.68-.57-1.09-.77-1.29-1.1-2.79-4.52-5.72-9-8.26-13.64a50.8,50.8,0,0,1-4.64-10.69c-1.51-5.46-.78-11.06.51-16.54.6-2.56,1.42-5.07,1.83-7.65a10.23,10.23,0,0,0-.35-4.7,3.58,3.58,0,0,0-2.5-2.16,4.24,4.24,0,0,0-2.88,2,7.51,7.51,0,0,0-.94,3.86c0,3.84.35,7.67.48,11.5a8.93,8.93,0,0,1-.42,2.13,10.66,10.66,0,0,1-2.13-.61c-.85-.44-1.57-1.13-2.4-1.59-1.38-.76-2-.39-2.05,1.22s.14,3.2.21,4.81a11.57,11.57,0,0,1-.13,1.32,5.14,5.14,0,0,1-4.29-3.13,34.31,34.31,0,0,1-1.62-5.09c-.62-2.06-.91-4.32-1.94-6.16a11.19,11.19,0,0,1,.05-11.71c1.58-2.73,3.93-5,5.84-7.55a23.07,23.07,0,0,0,1.74-3.17c-1.13-.22-2.25-.48-3.38-.66a4.67,4.67,0,0,0-1.34.08c-3.39.43-3.87-.11-3.16-3.52.27-1.31.54-2.63.75-4,.55-3.4-.27-5.13-3.23-6.86-1.05-.61-2.18-1.1-3.23-1.72-1.79-1.07-2.05-2.41-.66-3.93a24,24,0,0,1,20.52-8,26,26,0,0,1,10.88,3.51c1.22.7,2.47,1.36,3.75,1.95a5.47,5.47,0,0,0,5.79-.56A97.48,97.48,0,0,1,275.27,2c6.65-3.42,13-2.31,18.51,2.58a95,95,0,0,1,7.73,8.3A12.69,12.69,0,0,1,302.88,15.58Z"/><path class="cls-1" d="M118.19,215.72c2.76,5,0,9.8-5.67,9.89a43.18,43.18,0,0,1-25.2-7.33c-2.72-1.81-3.38-1.56-4.18,1.53s-3.2,4.94-6.35,4.61c-3.36-.35-5.51-2.41-5.59-5.71-.11-4.61,0-9.24,0-13.86q0-50,0-99.93c0-4.08,2.29-6.53,6.13-6.54s6.27,2.6,6.27,6.69v51.4a6.4,6.4,0,0,0,0,1.16c.15.78.36,1.56.54,2.33.8-.29,1.62-.53,2.38-.89,3.51-1.67,6.9-3.67,10.54-5,6.11-2.22,12.57-2.27,19-2a6.1,6.1,0,0,1,5.32,4.36c.83,3.17-.15,5.5-3.15,7.52-1.9.13-3.81.38-5.72.34a36.74,36.74,0,0,0-13.23,1.91c-15,5.36-20.61,23.36-11.05,35.79,5.8,7.54,13.82,11,23.23,11.21C114.07,213.31,116.39,213.65,118.19,215.72Z"/><path class="cls-2" d="M8.29,239.48c11.52.18,22.26-3,32.61-7.77,3.89-1.78,7.79-3.45,12.19-2.6a15.09,15.09,0,0,1,4.65,1.65,95.92,95.92,0,0,0,35.91,12.83,60.49,60.49,0,0,0,23.66-1.14c8-2.07,16.07-4.2,24.11-6.29a20.62,20.62,0,0,1,12.28.55c6.21,2.15,12.45,4.35,18.84,5.9a61.67,61.67,0,0,0,34.32-1.1c7.06-2.31,14.07-4.75,21.06-7.26,4.2-1.51,8.26-1.61,12.3.4a95,95,0,0,0,24.41,8.54,70.54,70.54,0,0,0,22.6.38,87,87,0,0,0,25.3-7.6c4.52-2.08,8.93-1.84,13.6-.14,6.66,2.43,13.43,4.62,20.27,6.49,7.33,2,14.82,1.74,22.34.77A91.71,91.71,0,0,0,390,238c1.85-.7,3.66-1.55,5.48-2.32a13.32,13.32,0,0,1,11,0,82.39,82.39,0,0,0,37.9,6.47,62.42,62.42,0,0,0,7-1.15c2.3-.38,3.36.11,3.64,1.69.31,1.74-.47,2.74-2.68,3.27a64.22,64.22,0,0,1-20.64,1.23,90.07,90.07,0,0,1-25-5.71,21.54,21.54,0,0,1-2.45-1.1,6.93,6.93,0,0,0-6.64,0c-9.43,4.6-19.5,6.76-29.85,8-14.44,1.77-28-1.46-41.22-6.77-1-.38-1.92-.74-2.84-1.19a10.5,10.5,0,0,0-8.74,0c-5.25,2-10.5,4.15-15.87,5.81a76.4,76.4,0,0,1-26,3.07c-12-.54-23.15-4.11-33.74-9.52a12.33,12.33,0,0,0-10.67-.42c-7.67,2.84-15.41,5.55-23.26,7.86-10.52,3.08-21.23,2.76-32,.87a100.28,100.28,0,0,1-21.79-6.63,13.09,13.09,0,0,0-9.13-.32c-9.78,2.69-19.58,5.42-29.53,7.39-7.21,1.44-14.63,1-22-.11A97.59,97.59,0,0,1,59.6,237.89,33.19,33.19,0,0,1,56,235.75c-3.16-2.23-6.4-2.15-9.85-.74-5.57,2.26-11.1,4.66-16.8,6.56C20.83,244.4,12,245,3.13,244.49a4.46,4.46,0,0,1-1.49-.31,2.3,2.3,0,0,1-1.58-2.74,2.26,2.26,0,0,1,2.45-2C4.44,239.49,6.36,239.48,8.29,239.48Z"/><path class="cls-1" d="M123.73,188.28c-.37-9.23,2.83-17.21,8.7-24.16a35.37,35.37,0,0,1,21.88-12.55c11.12-1.8,21.3.56,30.11,7.77a48.09,48.09,0,0,1,5.81,5.87,7.76,7.76,0,0,1-1,11.27q-15.66,12.17-31.47,24.12a5.79,5.79,0,0,1-8.24-1.09,5.54,5.54,0,0,1,.85-7.92c5.33-4.32,10.84-8.42,16.28-12.61l11.2-8.61a28.33,28.33,0,0,0-2.51-2.32c-14.55-10.59-35.56-2.28-39,15.41A25.06,25.06,0,0,0,157.83,213a24.65,24.65,0,0,0,14.48-2.65,18.65,18.65,0,0,1,3.67-1.62,6.13,6.13,0,0,1,7.2,3.39,6.29,6.29,0,0,1-2.76,8.13,42.94,42.94,0,0,1-9.47,4.08c-11.52,2.92-22.4,1.22-32.12-5.82a31.58,31.58,0,0,1-10.09-11.4c.06-.47.31-1,.14-1.39a45.49,45.49,0,0,1-4.1-16.49C124.76,188.9,124.1,188.6,123.73,188.28Z"/><path class="cls-1" d="M277.68,188.56c.16-.3.44-.61.45-.92a46.63,46.63,0,0,0-1.87-14.8c-3.27-10.92-13.65-11.55-20.59-7a10.81,10.81,0,0,1-5.11,1.77,5.33,5.33,0,0,1-5.41-3.85,6.24,6.24,0,0,1,1.87-7.15A27.41,27.41,0,0,1,261.11,151a26.72,26.72,0,0,1,10.83,1c8.14,2.57,13,8.28,15.82,16.06,2.44,6.81,2.92,13.89,2.78,21q-.33,15.67-.88,31.34a5.18,5.18,0,0,1-3.71,4.9,6.2,6.2,0,0,1-6.78-1.27c-2.83-2.75-2.78-2.65-6.35-1.17-10,4.12-19.84,3.88-28.85-2.44-7.75-5.45-11.38-13.23-9.95-22.7,1.49-9.82,7.27-16.27,16.85-19.19,6.08-1.86,12-1.14,17.91.83,2.56.86,3.64,2.64,3.63,5.44a3.09,3.09,0,0,1-1.59,4,12.89,12.89,0,0,1-5.48,1.13c-2.72-.11-5.4-1.1-8.11-1.19-5.39-.16-9.66,3.31-11.28,8.72-1.48,5,.72,11.33,4.82,14a16.57,16.57,0,0,0,13,2A18,18,0,0,0,278,196.75,66.19,66.19,0,0,0,277.68,188.56Z"/><path class="cls-1" d="M383.21,195.76c-.24,8-.43,15.9-.72,23.85a5.92,5.92,0,0,1-4.13,5.71,5.85,5.85,0,0,1-6.67-1.57c-.35-.38-.7-.75-1-1.15a2.4,2.4,0,0,0-3.37-.7,29.91,29.91,0,0,1-17.25,3.37c-10.95-.91-21-8.4-23.17-19.49a23.33,23.33,0,0,1,19.42-27.94,31.84,31.84,0,0,1,14.77,1.32,5.93,5.93,0,0,1,4.2,7.07c-.37,2.16-2.7,3.73-5.81,3.69-1.45,0-2.89-.52-4.34-.62-2.65-.16-5.42-.69-7.95-.16-5.39,1.12-8.84,5.49-9.05,11.21a12.65,12.65,0,0,0,7.43,12.21c10.79,4.64,20.59-2.74,23.86-9.46a16.06,16.06,0,0,0,1.37-6.33c.25-7.43.59-14.9-1.34-22.19-1.22-4.58-3-8.8-8-10.57s-9.44-.65-13.64,2.25c-2.65,1.85-5.74,1.94-7.87.27-3.52-2.78-3.46-7.42.25-10.15a26.33,26.33,0,0,1,12.25-5.22c9.05-1.2,17.11.86,23.2,8.12a28.33,28.33,0,0,1,6.41,15c.85,7.11,1.11,14.29,1.62,21.43Z"/><path class="cls-2" d="M276,279.66a93.5,93.5,0,0,1-38.13-8.18,9.25,9.25,0,0,0-7.55-.3,122,122,0,0,1-31.83,7.47,73.49,73.49,0,0,1-27.8-2.5c-6.92-2-13.69-4.6-20.45-7.13a11.33,11.33,0,0,0-7.84-.42,206.82,206.82,0,0,1-26.56,6.8c-15.83,3-31.23,1.87-46.22-4.14Q64,269,58.43,266.57c-2.11-.94-2.8-2.5-2-4.07.64-1.33,2.33-1.49,4.43-.68,6.91,2.67,13.76,5.55,20.8,7.8,8.75,2.8,17.77,2.72,26.85,1.66,11.05-1.29,21.69-4.2,32.23-7.59a16.31,16.31,0,0,1,12.3.86,108.39,108.39,0,0,0,24,7.87,75.63,75.63,0,0,0,28.84,0,152.69,152.69,0,0,0,23.24-6.35,13.17,13.17,0,0,1,10.25.35,88,88,0,0,0,31.82,8,96.55,96.55,0,0,0,16.28-.86c11.74-1.36,22.93-5,34-8.95a11,11,0,0,1,8.19.31A87,87,0,0,0,371,271a77.78,77.78,0,0,0,21.74-5.18c1.13-.44,2.31-.75,3.47-1.09,1.39-.42,2.63-.2,3.2,1.26a2.18,2.18,0,0,1-1.4,3.1c-5.22,1.84-10.38,3.95-15.72,5.33a77,77,0,0,1-23.26,2c-11-.57-21.81-2.51-32.06-6.88a5.6,5.6,0,0,0-3.44-.07c-8.09,2.33-16.09,5-24.24,7.11A86.16,86.16,0,0,1,276,279.66Z"/><path class="cls-3" d="M118.19,215.72c-1.8-2.07-4.12-2.41-6.75-2.47C102,213.06,94,209.58,88.21,202c-9.56-12.43-3.9-30.43,11.05-35.79a36.74,36.74,0,0,1,13.23-1.91c1.91,0,3.82-.21,5.72-.34Q118.21,189.86,118.19,215.72Z"/><path class="cls-1" d="M237.37,161.73l-.27.4c-2.34-.3-3.25,1.51-4.4,3a25.18,25.18,0,0,1-4.2-1c-5.5-2.26-11.19-1.35-15.16,2.53a11.28,11.28,0,0,0-3.39,8.49q0,21.65,0,43.3c0,2.75-.8,5.11-3.47,6.33-4.43,2-8.87-1-8.92-4.94-.05-3.21,0-6.41,0-9.62,0-17.51,0-35,0-52.53a8.77,8.77,0,0,1,1-4.54,6,6,0,0,1,10.07-.14c1.16,1.6,2.07,1.82,3.9,1,7.26-3.44,14.64-3.18,21.92,0,3,1.31,4.06,4.11,3.1,7.36C237.53,161.47,237.45,161.6,237.37,161.73Z"/><path class="cls-4" d="M277.68,188.56a66.19,66.19,0,0,1,.36,8.19,18,18,0,0,1-14.31,16.64,16.57,16.57,0,0,1-13-2c-4.1-2.64-6.3-9-4.82-14,1.62-5.41,5.89-8.88,11.28-8.72,2.71.09,5.39,1.08,8.11,1.19a12.89,12.89,0,0,0,5.48-1.13,3.09,3.09,0,0,0,1.59-4Z"/><path class="cls-2" d="M152.79,312.36a26.74,26.74,0,0,1,6.6-16.8c3.57-4,8-6.08,13.48-5.27a9.9,9.9,0,0,1,8.14,8.14c1.44,9-1,16.88-7.66,23.17a13.17,13.17,0,0,1-12,3.51,10.3,10.3,0,0,1-8.34-9.5C152.87,314.59,152.85,313.56,152.79,312.36Zm5.92,2.8c0,.76-.05,1.54,0,2.3.21,2.45.79,4.85,3.32,5.81s4.57-.21,6.33-2.06a24.65,24.65,0,0,0,5.21-9.51c1.83-5.36,3.06-10.82,1.35-16.49-1.06-3.51-4.16-4.66-7-2.33a20.18,20.18,0,0,0-4.51,5.15A34.5,34.5,0,0,0,158.71,315.16Z"/><path class="cls-2" d="M49.76,290.9c-1.21,3-2.44,6-3.67,9.07l-.46.06a14.68,14.68,0,0,1-.43-2.44c0-4.65-2.92-6.77-7.42-5.42a13.82,13.82,0,0,0-7.19,5.54c-4.33,6-6.32,12.66-4.37,20.07.7,2.66,2.14,4.78,5,5.54,2.11.56,3.76,0,4.58-2a56.41,56.41,0,0,0,2.53-8c.13-.56-.89-1.6-1.6-2.11a10.18,10.18,0,0,0-2.59-1l.13-.86H48c-.45.4-.9.75-1.28,1.14-1,1-2.26,1.82-2.71,3-.92,2.42-1.29,5-2.05,7.53a4,4,0,0,1-1.62,2.35c-4,1.74-8.25,2.71-12.69,1.57-4.74-1.23-7.64-4.72-8.24-10.59-.9-8.72,4.09-20.17,14.7-23.29a24.48,24.48,0,0,1,10.25-.59C46.06,290.63,47.8,290.73,49.76,290.9Z"/><path class="cls-2" d="M95.14,288.9c2.39-1.54,5.07-1.34,8.07-1.75-.23,1.36-.32,2.47-.61,3.52-2.49,9.23-5,18.44-7.53,27.66a13.59,13.59,0,0,0-.22,1.92l.59.39,4.18-3.49a7,7,0,0,1-.18,1.6A9.86,9.86,0,0,1,92.89,325c-2,.61-3.41-.77-3-2.85.32-1.68.77-3.34,1.23-5.28-1.82,2.11-3.35,4-5,5.82a7.11,7.11,0,0,1-5.46,2.4,2.46,2.46,0,0,1-2.74-2.56,19,19,0,0,1,.41-5.11,22.65,22.65,0,0,1,7.07-11.86c2.5-2.14,5.21-3.89,8.82-1.41l2.15-7.86c.07-.24.08-.5.14-.75C97.44,291.76,97.44,291.76,95.14,288.9ZM82.9,321.64c5-1.25,9.8-10.51,9.94-14.22A7,7,0,0,0,92,305a7.44,7.44,0,0,0-2.12,1,26.63,26.63,0,0,0-6.95,12.6A13.25,13.25,0,0,0,82.9,321.64Z"/><path class="cls-2" d="M297.47,291.27l-3.38,9.14-.7,0a12.49,12.49,0,0,1-.27-2.18,5.81,5.81,0,0,0-7.38-5.93c-3.81,1.1-6.41,3.85-8.31,7-3.26,5.51-5.15,11.52-3,17.9a12.27,12.27,0,0,0,4.06,5.11c2,1.59,5.12.69,7.8-1.72.86-.77,1.66-1.6,2.47-2.42s1.51-1.57,2.26-2.35l.55.17a12.66,12.66,0,0,1-.64,2.7c-.85,1.79-1.85,3.5-2.84,5.22-.48.84-1,1-2.17.8a16.62,16.62,0,0,0-5.37.4c-6.91,1.25-12.66-3.14-13.16-10.17a24.86,24.86,0,0,1,3.37-15.28c3.33-5.38,7.94-8.67,14.36-9.39a21,21,0,0,1,9,1C294.92,291.49,295.86,291.27,297.47,291.27Z"/><path class="cls-2" d="M200.06,318.91c-1.81,1.73-3.23,3.19-4.77,4.51-1.39,1.19-3.09,2.38-4.85,1.3s-1.54-3.27-1-5.08c.91-3.25,2-6.45,3-9.67a4.62,4.62,0,0,0,.23-2.44l-4,2.53c.23-.94.18-1.7.53-2a36.93,36.93,0,0,1,6-4.68c2.26-1.24,3.65-.09,3.17,2.5a50.56,50.56,0,0,1-2,6.39c-.65,2-1.38,4-2,6a14.13,14.13,0,0,0-.23,2.7l.53.32a17,17,0,0,0,2.41-1.63,16,16,0,0,0,4.76-8.79,13.36,13.36,0,0,1,1.11-3.64,6,6,0,0,1,2.17-2.25,1.74,1.74,0,0,1,2.73,2.11c-.64,2.13-1.59,4.17-2.28,6.29a29.23,29.23,0,0,0-1.35,5.32,2.82,2.82,0,0,0,1,2.39c.61.29,1.83-.18,2.54-.67,3.47-2.45,5.56-8.57,4.46-12.71a3.52,3.52,0,0,1,2.3-4.54c1-.35,1.92-.3,1.93,1a21.74,21.74,0,0,1-.34,5.66,26.48,26.48,0,0,1-8.42,13,11.91,11.91,0,0,1-2.93,1.8c-2.63,1.16-4.27.29-4.74-2.49A23.24,23.24,0,0,1,200.06,318.91Z"/><path class="cls-2" d="M360,311c2-2.23,3.91-4.59,6.1-6.63a6.39,6.39,0,0,1,3.63-1.27,2.41,2.41,0,0,1,2.72,2.72,15.66,15.66,0,0,1-.63,4.31c-.87,2.66-2,5.25-3,7.87-.24.62-.42,1.26-.62,1.9l.42.36,4.69-3.19a8.43,8.43,0,0,1-.53,2.12c-2,3.17-4.67,5.45-8.48,6-1.95.27-2.9-1.31-2.07-3.38,1.27-3.14,2.67-6.23,4-9.35.66-1.59,1.31-3.19,1.83-4.83a1.8,1.8,0,0,0-.34-1.5c-.17-.2-1.07-.09-1.34.18a18.07,18.07,0,0,0-3,3.42c-2.56,4.35-5,8.8-7.43,13.22-.25.44-.43,1-.81,1.28-.61.42-1.58,1.05-2,.83a3.09,3.09,0,0,1-1.53-2.05,6.4,6.4,0,0,1,.62-2.95c1.39-3.63,2.87-7.24,4.3-10.86.24-.62.39-1.29.58-1.94l-.41-.32-4.17,2.93a5.81,5.81,0,0,1,2.4-5.35,5.69,5.69,0,0,1,5.55-1.22c.53.2.81,2,.64,3a25.25,25.25,0,0,1-1.52,4.32l-.26.92.22.11Z"/><path class="cls-2" d="M239.65,320.46l4.68-3.34A6,6,0,0,1,244,319c-1.93,3-4.42,5.34-8,6-2.35.44-3.43-1-2.52-3.17,1.71-4.13,3.47-8.23,5.18-12.36a10.45,10.45,0,0,0,.72-2.37,1.39,1.39,0,0,0-.45-1.14,1.23,1.23,0,0,0-1.15.21,18.25,18.25,0,0,0-3.1,3.37c-2.63,4.38-5.06,8.89-7.64,13.31-.64,1.1-1,2.9-3,2.12-1.44-.55-1.75-1.94-.9-4.15,1.52-4,3.11-8,4.66-11.94.22-.57.35-1.17.52-1.76l-.43-.38-4.07,3a5,5,0,0,1-.2-1.46,7.19,7.19,0,0,1,6.94-5.28c1.6.07,2.35,1,1.88,2.5a64,64,0,0,0-1.88,6.43,54.7,54.7,0,0,1,3.62-4.73,18.38,18.38,0,0,1,4.54-3.74,4.19,4.19,0,0,1,3.69.18,4.08,4.08,0,0,1,1.2,3.5c-.87,3.44-2.2,6.77-3.36,10.14-.32.92-.67,1.83-1,2.75Z"/><path class="cls-2" d="M340.15,319.62c2.55.12,3.37-2.3,5.12-3.13.12.16.26.26.25.34-.52,2.9-5.11,7.66-7.87,8.17-2.1.39-3-.55-2.51-2.65a45.05,45.05,0,0,0,1.38-5.47c-.37.35-.75.69-1.1,1.05-1.52,1.56-3,3.2-4.59,4.66a12.08,12.08,0,0,1-3.33,2.21c-2.65,1.13-4.23,0-3.47-2.76,1.1-4,2.64-7.85,4-11.76.25-.71.48-1.42.86-2.53l-3.86,2-.52-.54a15.7,15.7,0,0,1,2.2-2.81,29.89,29.89,0,0,1,4.91-3.26,2.35,2.35,0,0,1,2.22.35,2.7,2.7,0,0,1,.23,2.25c-1.37,4.18-2.88,8.32-4.28,12.49a6.35,6.35,0,0,0,0,2c.65-.27,1.54-.36,1.9-.84,2-2.64,4-5.3,5.76-8.11a64.69,64.69,0,0,0,3.18-6.34c.63-1.31,1.45-2.47,3.07-1.76s1.29,2.17.84,3.49c-1.38,4-2.79,8.08-4.19,12.12A7.58,7.58,0,0,0,340.15,319.62Z"/><path class="cls-2" d="M425.85,306.67c-.78,1.21-1.27,2-1.77,2.74l-1.49,2.22c-.29-.28-.5-.38-.54-.52-.79-2.77,1.95-7.4,4.74-8.05,2.49-.57,4,.58,4.27,3.43.37,4.37.59,8.76.88,13.23a8.68,8.68,0,0,0,1.07-1.94c1-3.88,1.84-7.77,2.73-11.66.06-.25,0-.54.07-.77.39-.89-.34-2.42,1.27-2.6,1-.11,2.26,1.94,2,3.31a40.28,40.28,0,0,1-1.37,5.74,71.11,71.11,0,0,1-11.89,21.48c-1.77,2.24-3.66,4.49-6.74,5.1-1.41.28-2.88.25-3.56-1.12a2.94,2.94,0,0,1,1-3.92,2.77,2.77,0,0,1,2.46-.07c2.46,1.59,4,1.49,5.3-1.18a22.6,22.6,0,0,0,2.39-7.56c.39-5.08.19-10.19.16-15.29A10.07,10.07,0,0,0,425.85,306.67Z"/><path class="cls-2" d="M316.75,310.23c-.39,5.89-2.61,10.78-8,13.76a10.9,10.9,0,0,1-4.38,1.14c-2.84.21-4.88-1.76-5.4-4.89-.83-5.05,3.08-13.31,7.55-16,2.32-1.38,4.78-1.94,7.3-.75C315.85,304.46,316.8,307,316.75,310.23Zm-12,13.31h.86a18,18,0,0,0,2.58-3.47c1.32-3.09,2.43-6.27,3.45-9.47a13.78,13.78,0,0,0,.47-4.16,2.64,2.64,0,0,0-1-1.68c-.16-.14-1,.33-1.4.67a7,7,0,0,0-1.53,1.7A26.36,26.36,0,0,0,304,320.85,10.45,10.45,0,0,0,304.74,323.54Z"/><path class="cls-2" d="M71.32,310.09c-.38,5.82-2.7,10.6-7.78,13.71A10.33,10.33,0,0,1,59.39,325a5,5,0,0,1-5.78-4.79A17.65,17.65,0,0,1,61,304.48c2.21-1.64,4.87-2.3,7.39-.87S71.39,307.43,71.32,310.09Zm-13.23,10c.45,1.1.9,2.21,1.34,3.31.94-.74,2.21-1.3,2.77-2.27a30.29,30.29,0,0,0,4.44-14,6.61,6.61,0,0,0-.86-2.34,12.39,12.39,0,0,0-2.21,1.22,6.42,6.42,0,0,0-1.36,1.84A34.61,34.61,0,0,0,58.09,320.05Z"/><path class="cls-2" d="M391,303.32l4.6.44c-.22,1.76-1.23,2-2.49,2-3,.05-3,.07-4,3-1.2,3.6-2.37,7.21-3.55,10.81l.52.48,5-3.3.4.25a8.35,8.35,0,0,1-.74,2,15.4,15.4,0,0,1-8.05,5.94c-1.64.51-2.77-.42-2.77-2.15a7.1,7.1,0,0,1,.36-2.24c1.41-4.24,2.84-8.47,4.33-12.68.44-1.23.66-2.11-1.15-2.12-.42,0-.84-.53-1.26-.81.37-.37.75-1.08,1.1-1.07,2.73.08,3.52-1.95,4.63-3.83a7.4,7.4,0,0,1,2.69-2.55c1-.56,1.76,0,1.45,1.28C391.66,300.23,391.33,301.71,391,303.32Z"/><path class="cls-2" d="M407.7,308.94a52.94,52.94,0,0,1,3.61-4.65,5.12,5.12,0,0,1,2.82-1.35c1.34-.2,2.49.51,2.31,2.05a10.73,10.73,0,0,1-1.18,4.27c-1,1.63-2,1.36-2.76-.43-.21-.52-.49-1-1-2.06-1.2,2.21-2.28,4-3.15,5.87-1.48,3.17-2.81,6.42-4.23,9.63-.3.69-.55,1.65-1.11,1.94a6,6,0,0,1-3.11.63c-.26,0-.76-1.67-.55-2.4,1.23-4.41,2.66-8.76,4-13.15a5.4,5.4,0,0,0,.06-1.4,4.4,4.4,0,0,0-1.53.36,13.41,13.41,0,0,1-2.46,1.66,16,16,0,0,1,.46-2.7c.87-2.49,3.23-4.34,5.32-4.29,1.49,0,2.46.67,2.41,2.3,0,1.15-.15,2.29-.22,3.44,0,.29-.07.59-.1.88l.22,0C407.55,309.37,407.62,309.16,407.7,308.94Z"/><path class="cls-2" d="M119.87,325.14a9.26,9.26,0,0,1-2.72-2c-.43-.62,0-2,.33-2.95.41-1.21,1.23-1.29,2.2-.41a7.33,7.33,0,0,0,2.45,1.79,3.6,3.6,0,0,0,2.76-.28c.38-.27.28-1.77-.07-2.48a28.26,28.26,0,0,0-2.49-3.64,7.75,7.75,0,0,1,4.28-12,5.14,5.14,0,0,1,3,.12,2.77,2.77,0,0,1,1.58,1.91,5.43,5.43,0,0,1-1.2,2.67c-.13.19-.95.07-1.35-.12s-.72-.79-1.17-1c-.86-.33-2-1-2.66-.64-1.29.68-.82,2-.17,3,.93,1.46,2,2.82,3,4.25,2.21,3.21,2,5.81-.8,8.57A10.23,10.23,0,0,1,119.87,325.14Z"/><path class="cls-2" d="M117.89,292.94a8.15,8.15,0,0,1-6.78,7.91,4.47,4.47,0,0,1-1.67-.42,8.9,8.9,0,0,1,.87-1.35,25.84,25.84,0,0,0,3-3.17,2.74,2.74,0,0,0-.51-3.81c-.86-.71-1.78-1.59-.85-2.49a4.69,4.69,0,0,1,3.24-1.32C117,288.43,117.92,290.36,117.89,292.94Z"/><path class="cls-2" d="M123.73,188.28c.37.32,1,.62,1,.95a45.49,45.49,0,0,0,4.1,16.49c.17.37-.08.92-.14,1.39A37.59,37.59,0,0,1,123.73,188.28Z"/><path class="cls-2" d="M232.7,165.09c1.15-1.45,2.06-3.26,4.4-3A5.58,5.58,0,0,1,232.7,165.09Z"/><path class="cls-2" d="M237.37,161.73c.08-.13.16-.26.23-.4C237.53,161.47,237.45,161.6,237.37,161.73Z"/><path class="cls-5" d="M360,311l-.47.62-.22-.11.26-.92Z"/><path class="cls-5" d="M407.7,308.94c-.08.22-.15.43-.22.65l-.22,0c0-.29.06-.59.1-.88Z"/></g></g></svg>