<?xml version="1.0" encoding="utf-8"?>
<!-- Generator: Adobe Illustrator 24.1.0, SVG Export Plug-In . SVG Version: 6.00 Build 0)  -->
<svg version="1.1" id="Layer_1" xmlns="http://www.w3.org/2000/svg" xmlns:xlink="http://www.w3.org/1999/xlink" x="0px" y="0px"
	 viewBox="0 0 713.9 739.7" style="enable-background:new 0 0 713.9 739.7;" xml:space="preserve">
<style type="text/css">
	.st0{fill:#11102B;}
	.st1{fill-rule:evenodd;clip-rule:evenodd;fill:#EF9621;}
	.st2{fill-rule:evenodd;clip-rule:evenodd;fill:#F2F3F7;stroke:#231F20;stroke-width:4;stroke-miterlimit:2.61;}
	.st3{fill-rule:evenodd;clip-rule:evenodd;fill:#D2AB67;stroke:#11102B;stroke-width:4;stroke-miterlimit:2.61;}
	.st4{fill-rule:evenodd;clip-rule:evenodd;fill:#F2F3F7;stroke:#11102B;stroke-width:4;stroke-miterlimit:10;}
	.st5{fill-rule:evenodd;clip-rule:evenodd;fill:#11102B;stroke:#231F20;stroke-width:0.22;stroke-miterlimit:2.61;}
	.st6{fill:none;stroke:#231F20;stroke-width:2;stroke-miterlimit:2.61;}
	.st7{fill:#F2F3F7;stroke:#231F20;stroke-width:4;stroke-miterlimit:2.61;}
	.st8{fill:none;stroke:#231F20;stroke-width:4;stroke-miterlimit:2.61;}
	.st9{fill-rule:evenodd;clip-rule:evenodd;fill:#D2AB67;stroke:#231F20;stroke-width:4;stroke-miterlimit:2.61;}
	.st10{fill-rule:evenodd;clip-rule:evenodd;fill:#ED1C24;stroke:#231F20;stroke-width:4;stroke-miterlimit:2.61;}
	.st11{fill:none;stroke:#11102B;stroke-width:4;stroke-miterlimit:2.61;}
	.st12{fill:none;stroke:#D2AB67;stroke-width:4;stroke-miterlimit:2.61;}
	.st13{fill-rule:evenodd;clip-rule:evenodd;fill:#D2AB67;}
	.st14{fill-rule:evenodd;clip-rule:evenodd;}
	.st15{fill-rule:evenodd;clip-rule:evenodd;fill:#F2F3F7;stroke:#231F20;stroke-width:0.22;stroke-miterlimit:2.61;}
	.st16{fill-rule:evenodd;clip-rule:evenodd;fill:#11102B;stroke:#231F20;stroke-width:4;stroke-miterlimit:2.61;}
	.st17{fill-rule:evenodd;clip-rule:evenodd;fill:#ED1C24;}
</style>
<g id="Layer_2_1_">
	<g id="Layer_1-2">
		<path class="st0" d="M70.5,562.1l8.6-87.3l0.2-1.5l1.5-0.3l55.2-9.3l2.4-0.4l-0.1,2.4c0,0.1-1.1,31.5,5.4,47.5
			s25.8,31.4,25.9,31.5l2.4,1.9l-2.8,1.4c-0.1,0-26,13.3-49.2,11.4c-22.3-1.8-46.9,4.8-46.9,4.8l-2.8,0.7L70.5,562.1L70.5,562.1z
			 M82.9,476.7l-8.2,83c7.2-1.7,27-5.7,45.5-4.2c17.7,1.4,37.3-6.5,44.4-9.7c-5.6-4.8-19.2-17.7-24.6-31c-5.7-14-5.8-38.9-5.7-46.7
			L82.9,476.7z"/>
		<path class="st0" d="M323.5,487.1l0.1-0.1c8.8-9.7,16-15.5,18.9-16.8c1.5-1.2,1.9-1.2,1.2-0.2c1.4,0.5-3.2,6.9-17.3,19.8l-0.3,0.3
			l0,0c-3,3.4-29.9,33.3-23.4,69.2c7,39.1,30.9,49.1,31,49.2l-1.6,3.7c-0.1,0-25.9-10.9-33.3-52.1c-6.8-37.8,21.2-69,24.4-72.6l0,0
			L323.5,487.1L323.5,487.1z"/>
		<path class="st1" d="M570.8,634.5c5.7,6.1,16.6,21.7,10.5,48.5c-8.1,35.6-95.9,39-123,32.9s-82.7-39.7-101.5-67.2
			S338.1,523,338.1,523c1.2-6.7,2.7-13.4,4.7-20c0.4-1.5,0.9-3.1,1.4-4.8c1.3-4.3,2.8-8.9,4.7-13.8l7.4,10.1l-1.4,1.3
			c0,0,2.9,3,8.1,7.9l0,0c16.7,15.9,57.1,52.6,104.4,80.7l0,0c8.7,5.2,17.2,10,25.4,14.6s16.3,8.8,24,12.6
			c20.2,10.1,38.5,17.8,53.5,22.6l-0.1-0.1L570.8,634.5L570.8,634.5z"/>
		<path class="st1" d="M381.9,427.6c0,0-0.5-0.1-1.4-0.3c25.8-26.6,63.7-25.7,125.8-71.6c70.8-52.3,75.7-21,75.7-21
			s-30.9,26.2-35.6,41.7s24.9,11.3,24.9,11.3s-0.3,0.8-10.1,10.2s-2.1,29.4-2.1,29.4l23.6-26.7c0,0,1.3,1.3,2.7,10.8
			c1.3,9-9.6,61.5-32.2,104.6l-0.8-0.2c0,0,0,0,0,0l-0.7-0.2l0,0c-15.9-3.5-38.3-8.1-71.7-16.7c-75-19.4-80.4-43.2-80.4-43.2
			l-3.2-4.4c3-0.4,4.9-0.5,4.9-0.5l-5.1-6.1L385.5,432L381.9,427.6z"/>
		<path class="st2" d="M485.5,110.1c-75-61.3-134-49.4-175.9,50.1c1.9,0.1-24.8-37.6-15.9-56.8c4.1-8.9,30.6-51.9,64.5-65.4
			s83.7,6.6,89.4,10.6C468.8,56,496.6,102.8,485.5,110.1L485.5,110.1z"/>
		<path class="st3" d="M415.8,339.4c0,0-17.5,1.9-16.8,39.9s1,78.3,1,78.3l14.1,15.8c0,0-2.5-93.3-0.2-111.6
			S415.7,339.4,415.8,339.4L415.8,339.4z"/>
		<path class="st4" d="M116.3,548.3c0,0-36.7,19-46,31.5s-29,9-33.1,5.2s0.7-7.2-5.5-7.4s-31.4-2.1-29.6-19.6s12.2-55.3,18-75.3
			c4.5-15.6,2.7-38.6,19.6-46c4.1-1.8,7.2-1.6,6.1,7.1c-1.6,13.2-5.8,39.9-8.7,46l-2.9,6.1c0,0,11.9-4.8,19.3-28.6
			s5.8-33.8,11.9-36.7c3.4-1.7,7.3-2.2,10.9-1.3c0,0,6.2,7.1-0.9,29.2c-0.1,0.4-0.3,0.9-0.4,1.3C67.4,483,61,489.7,61,489.7
			s7.8-10.9,10.7-20.2s3.5-14.8,11.6-20s13.8-3.2,13.8-3.2c1.8-7.4,4.1-14.6,6.8-21.6c3.5-8.7,7-15.9,16.9-16.9
			c4.9-0.5,7.1,1.5,7.1,5.7c0,5.8-10.9,48.3-14.5,56.3s1,30.9-3.9,43.4c-4.9,12.5-15.8,20.6-15.8,20.6c4.1-1.8,8.6-2,12.9-0.6
			C113.7,535.4,116.3,548.3,116.3,548.3z"/>
		<path class="st5" d="M145.3,489.8c0,0-2,11.2,13.8,24.1s4.5,5.3,4.8-0.8s0-11.5,0-11.5c3.7,5.3,8.2,10,13.5,13.8
			c8.4,5.9,8.7,5.9,8.7,5.9l-4.8-12.9c4.2,4.7,9.7,8,15.8,9.6c10.1,2.5,11.5,0.6,11.5,0.6s-19.4-28.1-19.1-42.4s3.1-17.7,3.1-17.7
			s3.4,25.9,14.9,34.6s25.9,20.5,35.7,9.3s-0.6-34.3-0.6-34.3s10.4,16.3,28.9,15.5s34-18.3,34-18.3l0.3,45.5
			c0,0-18.8,23.3-47.5,29.8s-77,5.3-87.1,1.7s-28.4-23.6-28.9-34.3C141.8,501.6,142.8,495.4,145.3,489.8L145.3,489.8z"/>
		<path class="st6" d="M17.8,515.6c0,0,38.3,7.7,57.7,2.1s20.7-9.7,20.7-9.7 M23.4,535.9c0,0,0.9-13.8,22.6-19.1s20.9-3.9,31.1-11.3
			s10.4-8.1,10.4-8.1 M32.1,571.2c0,0,5.3-22.5,18-30.1s15.7-8.2,15.7-8.2"/>
		<path class="st0" d="M100.2,448.9L100.2,448.9c2.4,12.7-8.6,31.9-13.9,41.1c-1.2,2.1-2.1,3.7-2.4,4.5l-1.8-0.8
			c0.4-0.9-2.1-0.4-0.9-2.6c8.8-7.6,18.5-28.6,17.1-41.8l0,0L100.2,448.9L100.2,448.9z"/>
		<path class="st5" d="M77.1,460.8c0,0,12.7,3.4,18.9,0.7s0.4,2.8,0.4,2.8s-13,0.5-18.8-1.5S77.1,460.8,77.1,460.8L77.1,460.8z"/>
		<path class="st0" d="M377.2,381L377.2,381c-0.3-0.3-0.7-0.6-1.1-0.8c-1.1-0.7-2.2-1.4-3.4-2c-7.4-3.9-21.6-9.4-34.6-9.9
			c-8.8-0.3-17.6,0.8-26.1,3.1l0,0c-9.1,2.5-18,5.7-26.6,9.4c-18.5,7.5-47.8,33.1-47.9,33.2l-0.2,0.1c-0.2,0.1-54.4,36.5-75,41.8
			c-13.2,3.4-20.8,2.7-24.6,1.6l0.6,13l-4,0.2l-0.8-16.1l-0.2-4.3l3.4,2.6c0,0,5.2,4.2,24.6-0.9s70.7-39.2,73.7-41.2
			c1.5-1.3,30.3-26.3,49-33.9c8.8-3.7,17.9-6.9,27.1-9.5l0,0c8.9-2.4,18.1-3.5,27.3-3.3c13.7,0.5,28.5,6.2,36.3,10.3
			c1.3,0.7,2.6,1.4,3.8,2.2c0.9,0.5,1.7,1.3,2.3,2.1l0,0l-2.8,1.6L377.2,381L377.2,381z"/>
		<path class="st7" d="M322.8,471c0,0-36.9-21.2-63.5-42.7s-43.4-35.9-36.9-36.9s60.7,24.3,60.7,24.3s-15.8-12.2-7.2-26.5
			s12.2-24,12.2-24s-8.6-7.9-5.4-23.7s4.7-21.2,12.2-12.2s12.2,45.5,25.1,53.4s8.3,15.4,23.3,12.5s18.6-5.7,18.6-5.7s-12-5.3-6-20.2
			s18.6-10.3,18.6-10.3c0,9.5,1.4,18.9,4,28c4.3,15.1,9.7,26.5,6.8,34.4l-2.9,7.9"/>
		<path class="st3" d="M318.2,477.4l25.6,28.1c1.1-13.3,6.7-25.9,15.9-35.6c15.4-16.2,41.8-17.3,41.8-17.3l-19.4-23.2
			c0,0-24.9-5.9-38.7,4.9S318.2,477.4,318.2,477.4L318.2,477.4z"/>
		<path class="st0" d="M358.1,494.7c0.1,0.1,50.2,51.4,111.7,88.1l0,0c8.6,5.1,17,9.9,25.3,14.5c8.2,4.5,16.2,8.7,23.9,12.5
			c39.3,19.6,70.7,30,85.2,27.7l0,0c3.2-0.6,6.4-1.4,9.5-2.5c3.9-1.4,7.7-3,11.4-4.8c20.4-10.1,44.4-29.3,51.5-54.3
			c9.5-33.3,11.2-44.5,11.3-45.7c0-1.9-0.9-24.4-31.2-27.5c-16.5-1.7-30.9-1.9-42.1,0c-10.8,1.8-18.4,5.5-21.9,11.7l-7.7,13.5
			l-3.5-2l7.7-13.5c4.2-7.3,12.8-11.6,24.7-13.6c11.5-1.9,26.3-1.8,43.2,0c35.2,3.6,34.8,31.5,34.8,31.6v0.3c0,0-1.3,10.8-11.5,46.4
			c-7.5,26.2-32.3,46.3-53.6,56.7c-3.8,1.9-7.8,3.6-11.8,5c-3.3,1.2-6.7,2.1-10.2,2.7l0,0c-15.3,2.5-47.6-8.1-87.6-28
			c-7.7-3.8-15.8-8.1-24-12.6s-16.7-9.4-25.4-14.6l0,0c-62-36.9-112.3-88.6-112.5-88.7L358.1,494.7L358.1,494.7z"/>
		<path class="st0" d="M530.3,293.1c0,0,6.4,18.2,40.9,26.7l0,0c5,1.2,10,2.3,15,3.2s10.1,1.8,15.1,2.5c18.2,2.5,36.4,3.9,54.8,4.2
			l0,0c9.5,0.4,18.9,2.6,27.6,6.5c1.9,0.9,3.7,1.8,5.5,2.9c9.5,5.5,18,14.1,21.1,27.3l0,0l0,0c1.1,4.6,1.9,9.3,2.3,14
			c0.6,5,0.9,10.3,1,15.9c0.8,28.4-3.5,62.3-9,85.1v0.2c-3.3,14-5.2,24.2-6.4,31.2c-1.7,9.5-2.4,13.8-5.5,14.4l-0.8-3.9
			c0.4-0.1,1-3.5,2.3-11.2c1.2-7,3-17.2,6.5-31.5v-0.2c5.4-22.6,9.6-56,8.9-84.1c-0.1-5.4-0.5-10.6-1-15.6
			c-0.5-4.6-1.2-9.1-2.3-13.5l0,0l0,0c-2.9-11.9-10.6-19.7-19.2-24.7c-1.7-1-3.4-1.9-5.2-2.7c-8.2-3.7-17-5.8-25.9-6.2l0,0
			c-18.5-0.3-37-1.7-55.3-4.3c-5-0.7-10.1-1.5-15.3-2.5s-10.3-2-15.3-3.3h0c-36.6-9-43.7-29.1-43.7-29.2l3.8-1.4L530.3,293.1z"/>
		<path class="st0" d="M670.7,341.8c-0.2,0.1-51,27.1-69.7,92.2l0,0l0,0l0,0c-13.4,46.5-12.6,71.4-12.2,81.9
			c0.2,5.8,0.3,8.3-2.8,8.3v-4c1,0-1.1-1.3-1.2-4.2c-0.3-10.7-1.2-36.1,12.4-83.1l0,0l0,0l0,0c19.2-66.7,71.5-94.5,71.6-94.6
			L670.7,341.8L670.7,341.8z"/>
		<path class="st0" d="M618.2,335.4c-0.1,0.1-39.5,25.4-41,100.6c-1.6,76.1-0.5,87-0.5,87.1l-4,0.4c0,0-1.1-11.2,0.5-87.5
			c1.6-77.3,42.7-103.7,42.9-103.8L618.2,335.4L618.2,335.4z"/>
		<path class="st0" d="M577,379.6c-0.1,0.1-21.4,48.3-21.4,89c0,40.9,2.7,51.4,2.7,51.4l-3.9,1c0,0-2.9-11-2.9-52.4
			c0-41.5,21.7-90.5,21.7-90.6L577,379.6L577,379.6z"/>
		<path class="st0" d="M568.5,365.4c-0.1,0.1-27.7,46.3-32.5,89s-2.1,48.5-2.1,48.5l-3.7,1.5c0,0-3-6.8,1.9-50.5s32.9-90.5,33-90.6
			L568.5,365.4L568.5,365.4z"/>
		<path class="st8" d="M554.8,330.5c0,0-33.1,73.8-43.1,118.5s-10.8,48.7-10.8,48.7"/>
		<path class="st0" d="M535.3,327.6c-0.1,0.1-27.7,42.4-38,95.1c-10.4,53.2-13.3,60.6-13.3,60.6l-3.7-1.4c0,0,2.7-7,13.1-60
			c10.5-53.5,38.5-96.4,38.6-96.5L535.3,327.6L535.3,327.6z"/>
		<path class="st0" d="M492.8,411.6c-13.1,9.2-23.8,21.4-31.2,35.6c-12,23.6-13.9,27.8-13.9,27.8l-3.7-1.6c0,0,2.1-4.5,14-28
			c7.7-14.8,18.9-27.5,32.6-37.1L492.8,411.6L492.8,411.6z"/>
		<path class="st0" d="M386.7,533.6c-0.1,0.1-37.6,49.2-49.9,89c-12.2,39.3-1.8,55.8-1.8,55.9l-3.4,2.1c0,0-11.3-18,1.4-59.1
			c12.6-40.5,50.5-90.1,50.6-90.3L386.7,533.6L386.7,533.6z"/>
		<path class="st0" d="M343.3,645.2c0,0.1-3.1,28,11.5,43.9s36.2,14.6,36.2,14.6l0.2,4c-0.1,0-23.4,1.3-39.3-15.9
			s-12.6-46.9-12.6-47L343.3,645.2L343.3,645.2z"/>
		<path class="st0" d="M398.7,543.4c0,0.4-8.8,139.6-5.3,155.8l0,0c0.5,2.1,1.1,4.1,1.8,6.1c0.7,1.8,1.5,3.5,2.5,5.1
			c4.6,7.7,11.1,11.3,15.4,11.3h7.2v4h-7.2c-5.5,0-13.4-4.3-18.8-13.3c-1.1-1.8-2-3.7-2.8-5.7c-0.8-2.2-1.5-4.4-2-6.7l0,0
			c-3.7-16.7,5.2-156.5,5.2-156.9L398.7,543.4L398.7,543.4z"/>
		<path class="st0" d="M438.5,636.9c0,0.2-12.3,57.9,1.3,78.1l0,0l0,0c1.8,2.7,3.9,5.1,6.2,7.3c2.2,2,4.6,3.9,7.1,5.4
			c13,7.9,28.5,8.5,38.7,7.6c13.8-1.2,14.5-1.9,14.5-1.9l2.6,3c0,0-1.7,1.6-16.8,2.9c-10.7,0.9-27.2,0.3-41.1-8.2
			c-5.8-3.6-10.8-8.3-14.6-14l0,0l0,0c-14.5-21.6-1.9-80.9-1.9-81.1L438.5,636.9L438.5,636.9z"/>
		<path class="st0" d="M482.8,631.3c0,0.2-2.4,77.5,4.2,91.1c6.2,12.7,20.4,10.5,20.4,10.5l0.6,4c0,0-17.1,2.6-24.6-12.8
			c-7-14.5-4.6-92.7-4.6-93L482.8,631.3L482.8,631.3z"/>
		<path class="st0" d="M516.3,615.1c0.3-1,1.3-1.5,2.3-1.2c0.2,0.1,0.3,0.1,0.5,0.2c1.6,0.8,1.5,12.1,1.3,27.4
			c-0.4,26.9-0.9,67,2.1,77.7c4.4,15.8,16.5,15.4,16.5,15.4l0,4c0,0-15.2,0.4-20.4-18.3c-3.1-11.2-2.6-51.6-2.2-78.8
			c0.2-13.9,1.6-23.5,1-23.8c-0.4-0.2-0.1-0.5,0.4-0.8l0.5-0.9L516.3,615.1L516.3,615.1z M517.7,617c0.4-0.2,0.9-0.4,1.4-0.5
			l-0.9-0.5L517.7,617L517.7,617z"/>
		<path class="st9" d="M415.1,547.5c-7.9,7.1-7.3,14.8,3.8,24.4c13.9,12.1,21.2,3.6,19.9,12.1s-15.1,3.3-22.6,14.8
			S401.9,619,401.9,619s14.5-6.9,36.2,5.4s40.1,9.1,53.4-0.6s16.9-17.1,16.9-17.1S474,588.5,458,577.9S415.1,547.5,415.1,547.5
			L415.1,547.5z"/>
		<path class="st10" d="M475.2,589.6c0.1,0.5,0.1,1.1,0.1,1.6c0.1,8.3-6.5,15.2-14.8,15.4c-8.3,0.1-15.2-6.5-15.4-14.8
			c-0.1-6.4,3.9-12.2,9.9-14.4L475.2,589.6L475.2,589.6z"/>
		<path class="st5" d="M616,491.6l5.7,1c0,0,14.3-2.4,36.7,2.4s26.3,11.5,26.3,11.5s14.5-97.3,19.1-118.5s-12.4-45.4-30.6-39.6
			s-29.1,22.5-29.1,22.5s42.5-9.1,44.4,2.4s-8.1,13.8-8.1,13.8s-24.4,8.1-25.8,17.2l-1.4,9.1c0,0,18.2-8.6,21-3.3
			c1.7,3,2.2,6.6,1.4,10c0,0-22,1-28.2,10s-7.7,11.5-7.7,11.5s30.1-4.7,42,0.5s13.8,6.7,6.2,11.5s-42.5,1-42.5,1s-4.3,7.2,7.2,11.9
			s17.7,3.9,16.3,7.7s-18.6-0.5-33,9.1S615.9,491.7,616,491.6L616,491.6z"/>
		<path class="st11" d="M323.1,482.8c0,0,13.8-28.1,28-39.6s34.8-9.5,34.8-9.5 M336.2,497c0,0,13.7-27.9,28.2-40.6s32.2-10,32.2-10"
			/>
		<path class="st9" d="M546.5,312.1c0,0-52.9,129.6-58.9,157.2s-4,32.1-4,32.1l19.2,3c0,0,5.7-61.5,13.9-88.3s29-69.6,33.5-80.1
			s7.3-18.5,7.3-18.5L546.5,312.1L546.5,312.1z"/>
		<path class="st8" d="M400,457.5c0,0,5.4,23.8,80.4,43.2c75,19.4,95,18.4,108.8,30.5s16.5,20.2,16.5,20.2"/>
		<path class="st12" d="M417.2,355.8c40.3,22.2,91.2-26.8,119.9-50.5"/>
		<path class="st13" d="M453.5,360.3c6.2,0,11.3,5,11.3,11.3s-5,11.3-11.3,11.3s-11.3-5-11.3-11.3c0,0,0,0,0,0
			C442.2,365.3,447.3,360.3,453.5,360.3z"/>
		<path class="st13" d="M495.9,340.8c6.2,0,11.3,5,11.3,11.3s-5,11.3-11.3,11.3s-11.3-5-11.3-11.3c0,0,0,0,0,0
			C484.7,345.8,489.7,340.8,495.9,340.8z"/>
		<path class="st13" d="M525.2,318.2c6.2,0,11.3,5.1,11.3,11.3s-5.1,11.3-11.3,11.3c-6.2,0-11.3-5.1-11.3-11.3l0,0
			C513.9,323.3,519,318.2,525.2,318.2z"/>
		<path class="st5" d="M495.5,170.9c0,0,14,14.6,14.3,44.1c0.2,17.1-1.1,33.8-1.8,47.4c-0.5,9.9-0.7,18.2,0.2,23.7
			c2.2,13,3.8,29.5,3.8,29.5c-60.6,13.7-94,14.8-136.8-30.1c-14.3-15-26.1-30.8-28.6-40.1c-5.1-19.1-9.5-31.1,0-52.1
			s10.8-29.5,10.8-29.5s2.9,16.5-3.2,29.5s-11.8,41.3,1,59.4s38.7,52.4,68.9,61.9s52.4-6,52.4-6s0,9.5,8.6,2.9s17.1-26.7,18.7-48.3
			l1.6-21.6l-18.1-1.3c0,0,12.7-3.2,12.7-26.7C499.8,199.4,498.4,185.1,495.5,170.9L495.5,170.9z"/>
		<path class="st14" d="M417,280c0,0,15.1-9,17.8-10s13.8-0.3,13.8-0.3s4.4-7.2,8.5-7.8s15.6-3.4,15.6-3.4s-1.4,14.3-5.9,21
			s-13.2,11.5-26.3,10.2C431.2,288.8,426.8,281.8,417,280L417,280z M430.8,276.6h2.3c0,0,13.6,0.4,16.7-1.7s14-10.5,14-10.5
			s-3.2,8.9-6.2,11.7s-11.1,6.1-15.8,4.9C438,279.8,434.3,278.4,430.8,276.6L430.8,276.6z"/>
		<path class="st5" d="M370.4,206.4c14.5-4.7,35.9-1.1,35.9-1.1v6.7c0,0-16.5-7.4-30.1-1.2S357,227.6,357,227.6
			C358,216.7,357,210.7,370.4,206.4L370.4,206.4z"/>
		<path class="st5" d="M433.1,191.4l4.3,2.8c0,0,18-20,26.7-23.1c5.7-1.9,11.9-2.3,17.8-1.3c0,0-11.5-6.9-20.3-3.1
			S433.1,191.4,433.1,191.4L433.1,191.4z"/>
		<path class="st5" d="M364.6,236.6c0,0,8.6-9.4,18.3-15.3s12-7.1,18.6-5.4c4.5,1.3,8.6,3.3,12.4,6.1c0,0-6.3,16.5-17.3,18.1
			S364.6,236.6,364.6,236.6L364.6,236.6z"/>
		<path class="st15" d="M387.9,224.1c0,0,8.4,0.5,8.6,2.8c0,1.9-0.2,3.8-0.7,5.6c0,0,5-0.3,5.8-1c0.8-0.8,1.5-1.8,2-2.8
			c0,0,3-1.5,3.1-2.5s0.2-5.6,0.2-5.6c-3.5-0.2-7-0.1-10.6,0.2C390.7,221.2,387.9,224.1,387.9,224.1L387.9,224.1z"/>
		<path class="st5" d="M443.7,212.8c0.8-1.5-0.3-13.5,6.6-20.3s15.7-6.6,26.9-9.2s12.2-3,12.2-3s-13.5,28.4-22.6,30.5
			S443.7,212.8,443.7,212.8L443.7,212.8z"/>
		<path class="st15" d="M456.4,194.4l-2,0.5l5.5,4c0,0,0.5,6.4,2,6.4s2.6,1.1,5.4-1.6c2.5-2.8,4.9-5.7,7.1-8.7c0,0-0.5-4.3-4.6-3.5
			S456.4,194.4,456.4,194.4L456.4,194.4z"/>
		<path class="st5" d="M419.7,249.3c0,0-1.4,6.3-0.6,9.7c1.1,4.9,10.4,2,14,2.8c2.3,0.5,7.5,3.5,7.5,3.5l1.3-0.6c0,0-5.3-5.4-10-5.2
			s-8.6,1-9.7-0.9S419.6,249.3,419.7,249.3L419.7,249.3z"/>
		<path class="st5" d="M454.5,248.8c1.5-1.7,4.6-2.6,5.3-4.9s0.2-8.5,0.2-8.5l3,2.7c0,0,0,7.3-1.8,9.7s-7.3,6.1-9.1,8.6
			c-1.8,2.6-3.9,6.2-3.9,6.2h-1.8C447.9,254.8,449.5,254.3,454.5,248.8L454.5,248.8z"/>
		<path class="st16" d="M295.4,109.1c0,0-12.4-35.3-3.9-55.5c16.9-40.6,82.8-67.5,120.7-41.2c20.2,14,35.3,36.1,35.3,36.1
			C378,25.9,325.5,41.9,295.4,109.1z"/>
		<path class="st16" d="M320.7,193.7c0,0-13.9-14.7-10.7-41.6s31.7-67.4,58.3-79.9s59.8-4.5,74.2,1.1s42.5,32,42.5,32l2.3,22.9
			C449.1,74.7,319.2,92,320.7,193.7L320.7,193.7z"/>
		<path class="st9" d="M500.4,160c-46.1-61.7-170.9-46.9-166.4,56.7l-16.3-20.2c0,0,8.7-54.2,42.6-80.7s57.1-23.2,79.2-18.3
			s57.3,38.8,57.3,38.8L500.4,160z"/>
		<path class="st17" d="M399.3,125.8c10.4,0,18.9,8,18.9,17.8s-8.5,17.8-18.9,17.8s-18.9-7.9-18.9-17.8S388.9,125.9,399.3,125.8
			L399.3,125.8z"/>
		<path class="st13" d="M387.7,161.6c1.9,0.1,3.4,1.8,3.2,3.7c-0.1,1.9-1.8,3.4-3.7,3.2c-1.8-0.1-3.2-1.6-3.2-3.5
			C384.1,163.1,385.8,161.5,387.7,161.6z"/>
		<path class="st13" d="M395,165.4c1.9,0.1,3.4,1.8,3.2,3.7c-0.1,1.9-1.8,3.4-3.7,3.2c-1.8-0.1-3.3-1.6-3.2-3.5
			C391.4,166.9,393,165.4,395,165.4z"/>
		<path class="st13" d="M404.3,165.3c1.9,0.1,3.4,1.8,3.2,3.7c-0.1,1.9-1.8,3.4-3.7,3.2c-1.8-0.1-3.2-1.6-3.2-3.5
			C400.6,166.8,402.3,165.2,404.3,165.3C404.2,165.3,404.2,165.3,404.3,165.3z"/>
		<path class="st13" d="M413.1,162.3c1.9,0.1,3.4,1.8,3.2,3.7c-0.1,1.9-1.8,3.4-3.7,3.2c-1.8-0.1-3.2-1.6-3.2-3.5
			C409.5,163.8,411.1,162.2,413.1,162.3z"/>
		<path class="st13" d="M419.7,156.5c1.9,0.1,3.4,1.8,3.2,3.7c-0.1,1.9-1.8,3.4-3.7,3.2c-1.8-0.1-3.3-1.6-3.2-3.5
			C416.1,157.9,417.7,156.4,419.7,156.5z"/>
		<path class="st13" d="M423.8,149.4c1.9,0.1,3.4,1.8,3.2,3.7c-0.1,1.9-1.8,3.4-3.7,3.2c-1.8-0.1-3.3-1.6-3.2-3.5
			C420.2,150.9,421.8,149.4,423.8,149.4C423.8,149.4,423.8,149.4,423.8,149.4z"/>
		<path class="st13" d="M399.3,132.6c6.5,0,11.7,4.9,11.7,11s-5.2,11-11.7,11s-11.7-4.9-11.7-11S392.9,132.6,399.3,132.6z"/>
		<path class="st13" d="M387.2,308.6c6,1.6,7,1.3,7,1.3s-1.6,13.9-19,15.2s-22.2-5.4-22.2-5.4s8.9,0,9.8-8.9s0.3-9.5,0.3-12.3
			C363.1,285.1,381.2,307,387.2,308.6L387.2,308.6z"/>
		<path class="st13" d="M515.8,254.8c-3.3,5.2-4.3,5.7-4.3,5.7s10.6,9.1,24.3-1.8s12.6-19,12.6-19s-6.5,6-13.2,0.2s-6.7-6.8-8.6-8.8
			C517.5,221.2,519.1,249.6,515.8,254.8L515.8,254.8z"/>
		<path class="st0" d="M315.4,206.9c0,0.1-8.3,25.4-0.2,38.6c7.7,12.5,12.5,10.5,12.5,10.5l3.1-1.1l-0.4,3.2c0,0-1.2,10.4-0.4,14.5
			c0.5,2.4,6.7,0.7,6.7,0.7l2.6-0.7l-0.1,2.7c0,0.1-1.2,24.1,6.6,28.6c8,4.6,16.7,1.3,16.7,1.3l1.4,3.8c0,0-10.4,4-20.1-1.6
			c-8.1-4.6-8.7-23-8.6-29.7c-3.1,0.4-8.1,0.2-9.1-4.2c-0.7-3.4-0.3-10,0-13.5c-3.1-0.4-8.4-2.7-14.4-12.4
			c-9-14.7-0.2-41.8-0.2-41.9L315.4,206.9L315.4,206.9z"/>
		<path class="st8" d="M349.2,269.6c0,0-5.1,10.5-0.6,16.5s14.9,6.6,15.8-0.3S349.2,269.6,349.2,269.6L349.2,269.6z"/>
		<path class="st0" d="M338.1,227.6c0,0.1-7.4,19.6-8,32l-4-0.2c0.6-13,8.2-33.1,8.2-33.2L338.1,227.6L338.1,227.6z"/>
		<path class="st0" d="M505.2,130.7c0,0,15.6,11,17.8,17.5c1.7,5.1,5.1,6.6,5.1,6.6l0.4,0.2c0,0,14.5,11.3,4,20.4
			c-4.7,4.1-7.7,5.9-10.1,5.9c-2.9,0-4.4-2-6.1-5.3c-2.7-5-2.7-5.1-2.7-5.1l2.8-2.8c0,0,0.5,0.5,3.4,6.1c1,2,1.8,3.2,2.6,3.2
			c1.3,0,3.5-1.5,7.5-4.9c6.4-5.6-2.5-13.2-3.7-14.2c-3.3-2-5.8-5.2-6.9-8.9c-1.8-5.3-16.3-15.5-16.4-15.5L505.2,130.7z"/>
		<path class="st0" d="M538.7,178.1c0,0.1,5.2,24.3,0.8,38c-4.5,14.1-12.3,16.8-12.3,16.8l-1.3-3.8c0,0,5.9-2,9.8-14.2
			c4-12.6-0.9-35.9-0.9-36L538.7,178.1L538.7,178.1z"/>
		<path class="st0" d="M507.4,199c0,0,14-8.6,18.4,4.7l0.1,0.2l0,0c0.5,1.6,1,3.2,1.3,4.8s0.7,3.2,0.9,4.8
			c1.2,8.6-0.2,16.1-4.2,17.4l0,0c-4.9,1.6-17.7-4.9-17.7-4.9l1.8-3.6c0,0,11.3,5.8,14.7,4.7l0,0c2-0.6,2.4-6.3,1.5-13.1
			c-0.2-1.4-0.5-2.9-0.8-4.4s-0.8-3-1.2-4.5l0,0l-0.1-0.2c-2.8-8.5-12.5-2.6-12.5-2.6L507.4,199z"/>
		<path class="st17" d="M417.1,186.9c3.1,0,5.6,2.5,5.6,5.6s-2.5,5.6-5.6,5.6c-3.1,0-5.6-2.5-5.6-5.6c0,0,0,0,0,0
			C411.6,189.4,414,186.9,417.1,186.9C417.1,186.8,417.1,186.8,417.1,186.9z"/>
		<path class="st17" d="M453.5,366c3.1,0,5.6,2.5,5.6,5.6c0,3.1-2.5,5.6-5.6,5.6s-5.6-2.5-5.6-5.6c0,0,0,0,0,0
			C447.9,368.5,450.4,366,453.5,366C453.5,366,453.5,366,453.5,366z"/>
		<path class="st17" d="M495.9,346.5c3.1,0,5.6,2.5,5.6,5.6c0,3.1-2.5,5.6-5.6,5.6s-5.6-2.5-5.6-5.6c0,0,0,0,0,0
			C490.4,349,492.9,346.5,495.9,346.5C495.9,346.5,495.9,346.5,495.9,346.5z"/>
		<path class="st17" d="M525.2,323.9c3.1,0,5.6,2.5,5.6,5.6c0,3.1-2.5,5.6-5.6,5.6c-3.1,0-5.6-2.5-5.6-5.6c0,0,0,0,0,0
			C519.6,326.4,522.1,323.9,525.2,323.9C525.2,323.9,525.2,323.9,525.2,323.9z"/>
		<path class="st8" d="M323,83.7c0,0-2.4-7.2,14.8-19S361.6,51,361.6,51 M339.7,83c0,0-0.5-7.6,19.1-14.7c1.8-0.7,3.6-1.3,5.2-1.8
			 M376.8,51.7c0,0,3.5-4.5,12.4-6.9s27.9,3.8,27.9,3.8 M418.2,59.6c0,0,2.8,4.5,11.4,4.1s11.7-0.3,11.7-0.3 M431.3,53.8l30.3,10.3
			 M451.2,70c0,0,18.3,8.5,26.2,14.8s4.1,6.9,4.1,6.9"/>
	</g>
</g>
</svg>
