<?xml version="1.0" encoding="utf-8"?>
<!-- Generator: Adobe Illustrator 24.1.0, SVG Export Plug-In . SVG Version: 6.00 Build 0)  -->
<svg version="1.1" id="Layer_1" xmlns="http://www.w3.org/2000/svg" xmlns:xlink="http://www.w3.org/1999/xlink" x="0px" y="0px"
	 viewBox="0 0 493 292" style="enable-background:new 0 0 493 292;" xml:space="preserve">
<style type="text/css">
	.st0{fill:#11102C;}
</style>
<path class="st0" d="M246.5,65.5C185.5,65.5,136,115,136,176s49.5,110.5,110.5,110.5S357,237.1,357,176c0,0,0,0,0,0
	C357,115,307.5,65.5,246.5,65.5z M311.6,193.6c0,2.1-1.7,3.9-3.8,3.9c-0.5,0-1.1-0.1-1.6-0.3l-43.4-14.5v20.6l14.6,11
	c1.1,0.7,1.7,2,1.6,3.3V228c0.1,2-1.5,3.7-3.5,3.8c-0.1,0-0.2,0-0.2,0c-0.3,0-0.5-0.1-0.8-0.1l-28-8l-28,8c-0.3,0.1-0.7,0.1-1,0.1
	c-2,0-3.6-1.7-3.6-3.7c0,0,0-0.1,0-0.1v-10.5c0-1.3,0.6-2.5,1.6-3.3l14.6-11v-20.5l-43.4,14.5c-2,0.8-4.2-0.1-5.1-2.1
	c-0.2-0.5-0.3-1-0.3-1.6v-14.4c0-2.7,1.4-5.3,3.6-6.8l45.2-30.1v-16.9c0-8.7,7.4-23.8,16.3-23.8c9.1,0,16.3,15.1,16.3,23.8v16.8
	l45.2,30.1c2.3,1.5,3.6,4,3.6,6.8L311.6,193.6z"/>
</svg>
