<?xml version="1.0" encoding="utf-8"?>
<!-- Generator: Adobe Illustrator 24.1.0, SVG Export Plug-In . SVG Version: 6.00 Build 0)  -->
<svg version="1.1" id="Layer_1" xmlns="http://www.w3.org/2000/svg" xmlns:xlink="http://www.w3.org/1999/xlink" x="0px" y="0px"
	 viewBox="0 0 493 292" style="enable-background:new 0 0 493 292;" xml:space="preserve">
<style type="text/css">
	.st0{fill:#11102C;}
</style>
<path class="st0" d="M222,200.3c0,4.5-3.7,8.2-8.2,8.2c-4.5,0-8.2-3.7-8.2-8.2c0-4.5,3.7-8.2,8.2-8.2c0,0,0,0,0,0
	C218.3,192.1,222,195.7,222,200.3C222,200.2,222,200.2,222,200.3z"/>
<path class="st0" d="M242.4,143.1v24.5c0,4.5-3.7,8.2-8.2,8.2c0,0,0,0,0,0h-20.4c-4.5,0-8.2-3.6-8.2-8.1c0,0,0,0,0,0v-24.5
	c0-4.5,3.6-8.2,8.1-8.2c0,0,0,0,0,0h20.4C238.8,134.9,242.4,138.6,242.4,143.1C242.4,143.1,242.4,143.1,242.4,143.1z"/>
<path class="st0" d="M287.3,200.3c0,4.5-3.7,8.2-8.2,8.2c-4.5,0-8.2-3.7-8.2-8.2c0-4.5,3.7-8.2,8.2-8.2
	C283.7,192.1,287.3,195.7,287.3,200.3C287.3,200.2,287.3,200.2,287.3,200.3z"/>
<path class="st0" d="M287.3,143.1v24.5c0,4.5-3.7,8.2-8.2,8.2c0,0,0,0,0,0h-20.4c-4.5,0-8.2-3.6-8.2-8.1c0,0,0,0,0,0v-24.5
	c0-4.5,3.6-8.2,8.1-8.2c0,0,0,0,0,0h20.4C283.7,134.9,287.3,138.6,287.3,143.1C287.3,143.1,287.3,143.1,287.3,143.1z"/>
<path class="st0" d="M246.5,65.5C185.5,65.5,136,115,136,176s49.5,110.5,110.5,110.5S357,237.1,357,176c0,0,0,0,0,0
	C357,115,307.5,65.5,246.5,65.5z M303.7,200.3c-0.1,12-8.8,22.2-20.7,24.2l11.7,11.7c1.1,1.1,1.1,3-0.1,4.1
	c-0.6,0.6-1.4,0.9-2.2,0.8h-9.9c-2.2,0-4.3-0.9-5.8-2.4l-13.9-13.9h-32.7l-13.9,13.9c-1.5,1.5-3.6,2.4-5.8,2.4h-10.1
	c-1.6,0-2.8-1.3-2.8-2.9c0-0.8,0.3-1.5,0.8-2l11.7-11.7c-11.9-1.9-20.6-12.2-20.7-24.2v-65.3c0-13.5,11-24.5,24.5-24.5h65.3
	c13.5,0,24.5,11,24.5,24.5L303.7,200.3z"/>
</svg>
